<?xml version="1.0" encoding="UTF-8" standalone="no"?>
<!DOCTYPE svg PUBLIC "-//W3C//DTD SVG 1.1//EN"
 "http://www.w3.org/Graphics/SVG/1.1/DTD/svg11.dtd">
<!-- Generated by graphviz version 8.0.5 (20230430.1635)
 -->
<!-- Title: Transformation Plan Pages: 1 -->
<svg width="3772pt" height="1793pt"
 viewBox="0.00 0.00 3772.00 1793.45" xmlns="http://www.w3.org/2000/svg" xmlns:xlink="http://www.w3.org/1999/xlink">
<g id="graph0" class="graph" transform="scale(1 1) rotate(0) translate(144 1649.45)">
<title>Transformation Plan</title>
<polygon fill="white" stroke="none" points="-144,144 -144,-1649.45 3628,-1649.45 3628,144 -144,144"/>
<text text-anchor="middle" x="1742" y="-7.75" font-family="Sans-Serif" font-size="15.00" fill="#2d3436">Transformation Plan</text>
<g id="clust1" class="cluster">
<title>cluster_ePMO Foundations</title>
<path fill="#e5f5fd" stroke="#aeb6be" d="M20,-287.2C20,-287.2 1396,-287.2 1396,-287.2 1402,-287.2 1408,-293.2 1408,-299.2 1408,-299.2 1408,-1485.45 1408,-1485.45 1408,-1491.45 1402,-1497.45 1396,-1497.45 1396,-1497.45 20,-1497.45 20,-1497.45 14,-1497.45 8,-1491.45 8,-1485.45 8,-1485.45 8,-299.2 8,-299.2 8,-293.2 14,-287.2 20,-287.2"/>
<text text-anchor="middle" x="65.5" y="-1482.05" font-family="Sans-Serif" font-size="12.00" fill="#2d3436">ePMO Foundations</text>
</g>
<g id="clust2" class="cluster">
<title>cluster_OSD Transformation</title>
<path fill="#e5f5fd" stroke="#aeb6be" d="M1446,-287.2C1446,-287.2 3006,-287.2 3006,-287.2 3012,-287.2 3018,-293.2 3018,-299.2 3018,-299.2 3018,-1485.45 3018,-1485.45 3018,-1491.45 3012,-1497.45 3006,-1497.45 3006,-1497.45 1446,-1497.45 1446,-1497.45 1440,-1497.45 1434,-1491.45 1434,-1485.45 1434,-1485.45 1434,-299.2 1434,-299.2 1434,-293.2 1440,-287.2 1446,-287.2"/>
<text text-anchor="middle" x="1496.75" y="-1482.05" font-family="Sans-Serif" font-size="12.00" fill="#2d3436">OSD Transformation</text>
</g>
<g id="clust3" class="cluster">
<title>cluster_BCC Strategic Benefits</title>
<defs>
<linearGradient id="clust3_l_0" gradientUnits="userSpaceOnUse" x1="3026" y1="-645.12" x2="3476" y2="-645.12" >
<stop offset="0" style="stop-color:cyan;stop-opacity:1.;"/>
<stop offset="1" style="stop-color:blue;stop-opacity:1.;"/>
</linearGradient>
</defs>
<polygon fill="url(#clust3_l_0)" stroke="#aeb6be" points="3026,-34 3026,-1256.25 3476,-1256.25 3476,-34 3026,-34"/>
<text text-anchor="middle" x="3092.12" y="-1240.85" font-family="Sans-Serif" font-size="12.00" fill="#2d3436">BCC Strategic Benefits</text>
</g>
<!-- 0fbfdb4358b044cd9a9c3006eae26b7b -->
<g id="node1" class="node">
<title>0fbfdb4358b044cd9a9c3006eae26b7b</title>
<ellipse fill="white" stroke="black" cx="846" cy="-388.8" rx="93.6" ry="93.6"/>
<text text-anchor="middle" x="846" y="-407.95" font-family="Sans-Serif" font-size="13.00" fill="#2d3436">1.1 Position the PMO as a</text>
<text text-anchor="middle" x="846" y="-392.2" font-family="Sans-Serif" font-size="13.00" fill="#2d3436">Strategic Partner Driving</text>
<text text-anchor="middle" x="846" y="-376.45" font-family="Sans-Serif" font-size="13.00" fill="#2d3436">value&#45;focused Project</text>
<text text-anchor="middle" x="846" y="-360.7" font-family="Sans-Serif" font-size="13.00" fill="#2d3436">Delivery</text>
</g>
<!-- ce1ce3e350a24dc4b005454e53ca3721 -->
<g id="node2" class="node">
<title>ce1ce3e350a24dc4b005454e53ca3721</title>
<polygon fill="white" stroke="black" points="1284.6,-731.6 1097.4,-731.6 1097.4,-544.4 1284.6,-544.4 1284.6,-731.6"/>
<text text-anchor="middle" x="1191" y="-641.4" font-family="Sans-Serif" font-size="13.00" fill="#2d3436">1.1.1 Develop a Strategic</text>
<text text-anchor="middle" x="1191" y="-625.65" font-family="Sans-Serif" font-size="13.00" fill="#2d3436">Alignment Framework</text>
</g>
<!-- ce1ce3e350a24dc4b005454e53ca3721&#45;&gt;0fbfdb4358b044cd9a9c3006eae26b7b -->
<g id="edge1" class="edge">
<title>ce1ce3e350a24dc4b005454e53ca3721&#45;&gt;0fbfdb4358b044cd9a9c3006eae26b7b</title>
<path fill="none" stroke="#7b8894" d="M1121.47,-543.99C1121.47,-533.22 1121.47,-526 1121.47,-526 1121.47,-526 903.5,-526 903.5,-526 903.5,-526 903.5,-474.02 903.5,-474.02"/>
<polygon fill="#7b8894" stroke="#7b8894" points="907,-474.02 903.5,-464.02 900,-474.02 907,-474.02"/>
</g>
<!-- 18b6d66ca1514c1a9d8be80167c3a429 -->
<g id="node3" class="node">
<title>18b6d66ca1514c1a9d8be80167c3a429</title>
<polygon fill="white" stroke="black" points="1054.6,-731.6 867.4,-731.6 867.4,-544.4 1054.6,-544.4 1054.6,-731.6"/>
<text text-anchor="middle" x="961" y="-641.4" font-family="Sans-Serif" font-size="13.00" fill="#2d3436">1.1.2 Define a Value&#45;</text>
<text text-anchor="middle" x="961" y="-625.65" font-family="Sans-Serif" font-size="13.00" fill="#2d3436">driven Approach</text>
</g>
<!-- 18b6d66ca1514c1a9d8be80167c3a429&#45;&gt;0fbfdb4358b044cd9a9c3006eae26b7b -->
<g id="edge2" class="edge">
<title>18b6d66ca1514c1a9d8be80167c3a429&#45;&gt;0fbfdb4358b044cd9a9c3006eae26b7b</title>
<path fill="none" stroke="#7b8894" d="M885.45,-544.14C885.45,-544.14 885.45,-484.96 885.45,-484.96"/>
<polygon fill="#7b8894" stroke="#7b8894" points="888.95,-484.96 885.45,-474.96 881.95,-484.96 888.95,-484.96"/>
</g>
<!-- 08624c2b1b6440a98151fe11309a5dcc -->
<g id="node4" class="node">
<title>08624c2b1b6440a98151fe11309a5dcc</title>
<polygon fill="white" stroke="black" points="824.6,-731.6 637.4,-731.6 637.4,-544.4 824.6,-544.4 824.6,-731.6"/>
<text text-anchor="middle" x="731" y="-641.4" font-family="Sans-Serif" font-size="13.00" fill="#2d3436">1.1.3 Enhance Stakeholder</text>
<text text-anchor="middle" x="731" y="-625.65" font-family="Sans-Serif" font-size="13.00" fill="#2d3436">Engagement</text>
</g>
<!-- 08624c2b1b6440a98151fe11309a5dcc&#45;&gt;0fbfdb4358b044cd9a9c3006eae26b7b -->
<g id="edge3" class="edge">
<title>08624c2b1b6440a98151fe11309a5dcc&#45;&gt;0fbfdb4358b044cd9a9c3006eae26b7b</title>
<path fill="none" stroke="#7b8894" d="M788.5,-544.14C788.5,-544.14 788.5,-474.16 788.5,-474.16"/>
<polygon fill="#7b8894" stroke="#7b8894" points="792,-474.16 788.5,-464.16 785,-474.16 792,-474.16"/>
</g>
<!-- bd36eb5d9908443eb4d90273a660c320 -->
<g id="node5" class="node">
<title>bd36eb5d9908443eb4d90273a660c320</title>
<polygon fill="white" stroke="black" points="1169.6,-1222 982.4,-1222 982.4,-1034.8 1169.6,-1034.8 1169.6,-1222"/>
<text text-anchor="middle" x="1076" y="-1139.68" font-family="Sans-Serif" font-size="13.00" fill="#2d3436">1.1.4 Streamline</text>
<text text-anchor="middle" x="1076" y="-1123.93" font-family="Sans-Serif" font-size="13.00" fill="#2d3436">Governance and</text>
<text text-anchor="middle" x="1076" y="-1108.18" font-family="Sans-Serif" font-size="13.00" fill="#2d3436">Communication</text>
</g>
<!-- e5f6494babf64dc18253864b9a4c3b04 -->
<g id="node11" class="node">
<title>e5f6494babf64dc18253864b9a4c3b04</title>
<ellipse fill="white" stroke="black" cx="961" cy="-883.2" rx="93.6" ry="93.6"/>
<text text-anchor="middle" x="961" y="-894.48" font-family="Sans-Serif" font-size="13.00" fill="#2d3436">3.1 Establish a people&#45;</text>
<text text-anchor="middle" x="961" y="-878.73" font-family="Sans-Serif" font-size="13.00" fill="#2d3436">focused ePMO and a</text>
<text text-anchor="middle" x="961" y="-862.98" font-family="Sans-Serif" font-size="13.00" fill="#2d3436">Culture of excellence</text>
</g>
<!-- bd36eb5d9908443eb4d90273a660c320&#45;&gt;e5f6494babf64dc18253864b9a4c3b04 -->
<g id="edge6" class="edge">
<title>bd36eb5d9908443eb4d90273a660c320&#45;&gt;e5f6494babf64dc18253864b9a4c3b04</title>
<path fill="none" stroke="#7b8894" d="M1018.5,-1034.3C1018.5,-1034.3 1018.5,-968.64 1018.5,-968.64"/>
<polygon fill="#7b8894" stroke="#7b8894" points="1022,-968.64 1018.5,-958.64 1015,-968.64 1022,-968.64"/>
</g>
<!-- 7cd3a211728d4064bdcb10ffebd11e14 -->
<g id="node21" class="node">
<title>7cd3a211728d4064bdcb10ffebd11e14</title>
<polygon fill="white" stroke="black" points="2089.6,-976.8 1902.4,-976.8 1902.4,-789.6 2089.6,-789.6 2089.6,-976.8"/>
<text text-anchor="middle" x="1996" y="-886.6" font-family="Sans-Serif" font-size="13.00" fill="#2d3436">4.1.2 Develop a</text>
<text text-anchor="middle" x="1996" y="-870.85" font-family="Sans-Serif" font-size="13.00" fill="#2d3436">Governance Framework</text>
</g>
<!-- bd36eb5d9908443eb4d90273a660c320&#45;&gt;7cd3a211728d4064bdcb10ffebd11e14 -->
<g id="edge18" class="edge">
<title>bd36eb5d9908443eb4d90273a660c320&#45;&gt;7cd3a211728d4064bdcb10ffebd11e14</title>
<path fill="none" stroke="#7b8894" d="M1133.5,-1034.55C1133.5,-1009.87 1133.5,-990 1133.5,-990 1133.5,-990 1949.2,-990 1949.2,-990 1949.2,-990 1949.2,-987.9 1949.2,-987.9"/>
<polygon fill="#7b8894" stroke="#7b8894" points="1952.7,-987.9 1949.2,-977.9 1945.7,-987.9 1952.7,-987.9"/>
</g>
<!-- f69159ccdb2c4b24a2a13e63e9d239fa -->
<g id="node6" class="node">
<title>f69159ccdb2c4b24a2a13e63e9d239fa</title>
<polygon fill="white" stroke="black" points="846,-1178.8 752.4,-1128.4 846,-1078 939.6,-1128.4 846,-1178.8"/>
<text text-anchor="middle" x="846" y="-1123.93" font-family="Sans-Serif" font-size="13.00" fill="#2d3436">Fragmented ePMO Functions</text>
</g>
<!-- f69159ccdb2c4b24a2a13e63e9d239fa&#45;&gt;e5f6494babf64dc18253864b9a4c3b04 -->
<g id="edge13" class="edge">
<title>f69159ccdb2c4b24a2a13e63e9d239fa&#45;&gt;e5f6494babf64dc18253864b9a4c3b04</title>
<path fill="none" stroke="#7b8894" d="M915.53,-1115.22C915.53,-1115.22 915.53,-976.49 915.53,-976.49"/>
<polygon fill="#7b8894" stroke="#7b8894" points="919.03,-976.49 915.53,-966.49 912.03,-976.49 919.03,-976.49"/>
</g>
<!-- 69d749243c814412b3d117fb9e54359b -->
<g id="node7" class="node">
<title>69d749243c814412b3d117fb9e54359b</title>
<polygon fill="white" stroke="black" points="594.6,-731.6 407.4,-731.6 407.4,-544.4 594.6,-544.4 594.6,-731.6"/>
<text text-anchor="middle" x="501" y="-641.4" font-family="Sans-Serif" font-size="13.00" fill="#2d3436">2.1.3 Foster a Productive</text>
<text text-anchor="middle" x="501" y="-625.65" font-family="Sans-Serif" font-size="13.00" fill="#2d3436">and Agile Culture</text>
</g>
<!-- 69d749243c814412b3d117fb9e54359b&#45;&gt;0fbfdb4358b044cd9a9c3006eae26b7b -->
<g id="edge4" class="edge">
<title>69d749243c814412b3d117fb9e54359b&#45;&gt;0fbfdb4358b044cd9a9c3006eae26b7b</title>
<path fill="none" stroke="#7b8894" d="M501,-544.2C501,-473.26 501,-388 501,-388 501,-388 741.18,-388 741.18,-388"/>
<polygon fill="#7b8894" stroke="#7b8894" points="741.18,-391.5 751.18,-388 741.18,-384.5 741.18,-391.5"/>
</g>
<!-- 24ce85944cba4670b8e63c0af0272a60 -->
<g id="node8" class="node">
<title>24ce85944cba4670b8e63c0af0272a60</title>
<polygon fill="white" stroke="black" points="709.6,-1222 522.4,-1222 522.4,-1034.8 709.6,-1034.8 709.6,-1222"/>
<text text-anchor="middle" x="616" y="-1131.8" font-family="Sans-Serif" font-size="13.00" fill="#2d3436">2.1.4 Strengthen</text>
<text text-anchor="middle" x="616" y="-1116.05" font-family="Sans-Serif" font-size="13.00" fill="#2d3436">Stakeholder Relationships</text>
</g>
<!-- 24ce85944cba4670b8e63c0af0272a60&#45;&gt;e5f6494babf64dc18253864b9a4c3b04 -->
<g id="edge7" class="edge">
<title>24ce85944cba4670b8e63c0af0272a60&#45;&gt;e5f6494babf64dc18253864b9a4c3b04</title>
<path fill="none" stroke="#7b8894" d="M710.03,-1056C789.83,-1056 891.47,-1056 891.47,-1056 891.47,-1056 891.47,-957.56 891.47,-957.56"/>
<polygon fill="#7b8894" stroke="#7b8894" points="894.97,-957.56 891.47,-947.56 887.97,-957.56 894.97,-957.56"/>
</g>
<!-- 15ab3247606546d18fd4852d95ff7531 -->
<g id="node9" class="node">
<title>15ab3247606546d18fd4852d95ff7531</title>
<polygon fill="white" stroke="black" points="640.6,-1467.2 453.4,-1467.2 453.4,-1280 640.6,-1280 640.6,-1467.2"/>
<text text-anchor="middle" x="547" y="-1377" font-family="Sans-Serif" font-size="13.00" fill="#2d3436">2.1.5 Establish Effective</text>
<text text-anchor="middle" x="547" y="-1361.25" font-family="Sans-Serif" font-size="13.00" fill="#2d3436">Communication Channels</text>
</g>
<!-- 15ab3247606546d18fd4852d95ff7531&#45;&gt;bd36eb5d9908443eb4d90273a660c320 -->
<g id="edge16" class="edge">
<title>15ab3247606546d18fd4852d95ff7531&#45;&gt;bd36eb5d9908443eb4d90273a660c320</title>
<path fill="none" stroke="#7b8894" d="M640.89,-1373C686.25,-1373 731,-1373 731,-1373 731,-1373 731,-1193 731,-1193 731,-1193 971.18,-1193 971.18,-1193"/>
<polygon fill="#7b8894" stroke="#7b8894" points="971.18,-1196.5 981.18,-1193 971.18,-1189.5 971.18,-1196.5"/>
</g>
<!-- 15ab3247606546d18fd4852d95ff7531&#45;&gt;e5f6494babf64dc18253864b9a4c3b04 -->
<g id="edge12" class="edge">
<title>15ab3247606546d18fd4852d95ff7531&#45;&gt;e5f6494babf64dc18253864b9a4c3b04</title>
<path fill="none" stroke="#7b8894" d="M487.9,-1279.52C487.9,-1149.31 487.9,-930 487.9,-930 487.9,-930 868.4,-930 868.4,-930"/>
<polygon fill="#7b8894" stroke="#7b8894" points="868.4,-933.5 878.4,-930 868.4,-926.5 868.4,-933.5"/>
</g>
<!-- e0bafc9374e54162a20feba82206c565 -->
<g id="node10" class="node">
<title>e0bafc9374e54162a20feba82206c565</title>
<polygon fill="white" stroke="black" points="1169.6,-1467.2 982.4,-1467.2 982.4,-1280 1169.6,-1280 1169.6,-1467.2"/>
<text text-anchor="middle" x="1076" y="-1377" font-family="Sans-Serif" font-size="13.00" fill="#2d3436">2.1.7 Eliminate Busyness</text>
<text text-anchor="middle" x="1076" y="-1361.25" font-family="Sans-Serif" font-size="13.00" fill="#2d3436">and Focus on Value</text>
</g>
<!-- e0bafc9374e54162a20feba82206c565&#45;&gt;bd36eb5d9908443eb4d90273a660c320 -->
<g id="edge17" class="edge">
<title>e0bafc9374e54162a20feba82206c565&#45;&gt;bd36eb5d9908443eb4d90273a660c320</title>
<path fill="none" stroke="#7b8894" d="M1044.8,-1279.5C1044.8,-1279.5 1044.8,-1233.25 1044.8,-1233.25"/>
<polygon fill="#7b8894" stroke="#7b8894" points="1048.3,-1233.25 1044.8,-1223.25 1041.3,-1233.25 1048.3,-1233.25"/>
</g>
<!-- a703c37a68c64f07bc64b6c959eb66cd -->
<g id="node26" class="node">
<title>a703c37a68c64f07bc64b6c959eb66cd</title>
<ellipse fill="white" stroke="black" cx="2226" cy="-638" rx="93.6" ry="93.6"/>
<text text-anchor="middle" x="2226" y="-649.27" font-family="Sans-Serif" font-size="13.00" fill="#2d3436">5.1 Standardise,</text>
<text text-anchor="middle" x="2226" y="-633.52" font-family="Sans-Serif" font-size="13.00" fill="#2d3436">Consolidate, and Align</text>
<text text-anchor="middle" x="2226" y="-617.77" font-family="Sans-Serif" font-size="13.00" fill="#2d3436">Systems and Processes</text>
</g>
<!-- e5f6494babf64dc18253864b9a4c3b04&#45;&gt;a703c37a68c64f07bc64b6c959eb66cd -->
<g id="edge24" class="edge">
<title>e5f6494babf64dc18253864b9a4c3b04&#45;&gt;a703c37a68c64f07bc64b6c959eb66cd</title>
<path fill="none" stroke="#7b8894" d="M992.2,-794.48C992.2,-776 992.2,-762 992.2,-762 992.2,-762 2179.2,-762 2179.2,-762 2179.2,-762 2179.2,-730.33 2179.2,-730.33"/>
<polygon fill="#7b8894" stroke="#7b8894" points="2182.7,-730.33 2179.2,-720.33 2175.7,-730.33 2182.7,-730.33"/>
</g>
<!-- d941c6165c044fdbbc1229eea53a6e94 -->
<g id="node29" class="node">
<title>d941c6165c044fdbbc1229eea53a6e94</title>
<polygon fill="white" stroke="black" points="2089.6,-731.6 1902.4,-731.6 1902.4,-544.4 2089.6,-544.4 2089.6,-731.6"/>
<text text-anchor="middle" x="1996" y="-641.4" font-family="Sans-Serif" font-size="13.00" fill="#2d3436">5.1.4 Optimise Existing</text>
<text text-anchor="middle" x="1996" y="-625.65" font-family="Sans-Serif" font-size="13.00" fill="#2d3436">Tools</text>
</g>
<!-- e5f6494babf64dc18253864b9a4c3b04&#45;&gt;d941c6165c044fdbbc1229eea53a6e94 -->
<g id="edge23" class="edge">
<title>e5f6494babf64dc18253864b9a4c3b04&#45;&gt;d941c6165c044fdbbc1229eea53a6e94</title>
<path fill="none" stroke="#7b8894" d="M929.8,-794.43C929.8,-769.48 929.8,-749 929.8,-749 929.8,-749 1996,-749 1996,-749 1996,-749 1996,-742.66 1996,-742.66"/>
<polygon fill="#7b8894" stroke="#7b8894" points="1999.5,-742.66 1996,-732.66 1992.5,-742.66 1999.5,-742.66"/>
</g>
<!-- 7de5a5dea82b48bda90dd4f2fa4b6984 -->
<g id="node12" class="node">
<title>7de5a5dea82b48bda90dd4f2fa4b6984</title>
<polygon fill="white" stroke="black" points="203.6,-1222 16.4,-1222 16.4,-1034.8 203.6,-1034.8 203.6,-1222"/>
<text text-anchor="middle" x="110" y="-1131.8" font-family="Sans-Serif" font-size="13.00" fill="#2d3436">3.1.4 Recruitment and</text>
<text text-anchor="middle" x="110" y="-1116.05" font-family="Sans-Serif" font-size="13.00" fill="#2d3436">Talent Management</text>
</g>
<!-- 7de5a5dea82b48bda90dd4f2fa4b6984&#45;&gt;e5f6494babf64dc18253864b9a4c3b04 -->
<g id="edge8" class="edge">
<title>7de5a5dea82b48bda90dd4f2fa4b6984&#45;&gt;e5f6494babf64dc18253864b9a4c3b04</title>
<path fill="none" stroke="#7b8894" d="M110,-1034.68C110,-949.15 110,-836 110,-836 110,-836 868.79,-836 868.79,-836"/>
<polygon fill="#7b8894" stroke="#7b8894" points="868.79,-839.5 878.79,-836 868.79,-832.5 868.79,-839.5"/>
</g>
<!-- ec196476baf74e3ea766566386f0048d -->
<g id="node13" class="node">
<title>ec196476baf74e3ea766566386f0048d</title>
<polygon fill="white" stroke="black" points="433.6,-1222 246.4,-1222 246.4,-1034.8 433.6,-1034.8 433.6,-1222"/>
<text text-anchor="middle" x="340" y="-1139.68" font-family="Sans-Serif" font-size="13.00" fill="#2d3436">3.1.6 Organisational</text>
<text text-anchor="middle" x="340" y="-1123.93" font-family="Sans-Serif" font-size="13.00" fill="#2d3436">Change Management (OCM)</text>
<text text-anchor="middle" x="340" y="-1108.18" font-family="Sans-Serif" font-size="13.00" fill="#2d3436">Collaboration</text>
</g>
<!-- ec196476baf74e3ea766566386f0048d&#45;&gt;e5f6494babf64dc18253864b9a4c3b04 -->
<g id="edge9" class="edge">
<title>ec196476baf74e3ea766566386f0048d&#45;&gt;e5f6494babf64dc18253864b9a4c3b04</title>
<path fill="none" stroke="#7b8894" d="M420.5,-1034.57C420.5,-965.3 420.5,-883 420.5,-883 420.5,-883 856.16,-883 856.16,-883"/>
<polygon fill="#7b8894" stroke="#7b8894" points="856.16,-886.5 866.16,-883 856.16,-879.5 856.16,-886.5"/>
</g>
<!-- 6d43a0348cb54058bbda97442ea4d67a -->
<g id="node14" class="node">
<title>6d43a0348cb54058bbda97442ea4d67a</title>
<polygon fill="white" stroke="black" points="939.6,-1467.2 752.4,-1467.2 752.4,-1280 939.6,-1280 939.6,-1467.2"/>
<text text-anchor="middle" x="846" y="-1384.88" font-family="Sans-Serif" font-size="13.00" fill="#2d3436">3.1.7 Focus on Value,</text>
<text text-anchor="middle" x="846" y="-1369.13" font-family="Sans-Serif" font-size="13.00" fill="#2d3436">Benefits, and Strategy</text>
<text text-anchor="middle" x="846" y="-1353.38" font-family="Sans-Serif" font-size="13.00" fill="#2d3436">Alignment</text>
</g>
<!-- 6d43a0348cb54058bbda97442ea4d67a&#45;&gt;bd36eb5d9908443eb4d90273a660c320 -->
<g id="edge14" class="edge">
<title>6d43a0348cb54058bbda97442ea4d67a&#45;&gt;bd36eb5d9908443eb4d90273a660c320</title>
<path fill="none" stroke="#7b8894" d="M846,-1279.59C846,-1241.8 846,-1207 846,-1207 846,-1207 971.12,-1207 971.12,-1207"/>
<polygon fill="#7b8894" stroke="#7b8894" points="971.12,-1210.5 981.12,-1207 971.12,-1203.5 971.12,-1210.5"/>
</g>
<!-- eb52709ff5db45a9bed6073c86abc6e1 -->
<g id="node15" class="node">
<title>eb52709ff5db45a9bed6073c86abc6e1</title>
<polygon fill="white" stroke="black" points="1399.6,-482.4 1212.4,-482.4 1212.4,-295.2 1399.6,-295.2 1399.6,-482.4"/>
<text text-anchor="middle" x="1306" y="-392.2" font-family="Sans-Serif" font-size="13.00" fill="#2d3436">3.1.9 Regular</text>
<text text-anchor="middle" x="1306" y="-376.45" font-family="Sans-Serif" font-size="13.00" fill="#2d3436">Communication Cadence</text>
</g>
<!-- 3cb4255e4b0c4363ae866c261d569ce8 -->
<g id="node38" class="node">
<title>3cb4255e4b0c4363ae866c261d569ce8</title>
<ellipse fill="white" stroke="black" cx="3132" cy="-139.6" rx="93.6" ry="93.6"/>
<ellipse fill="none" stroke="black" cx="3132" cy="-139.6" rx="97.6" ry="97.6"/>
<text text-anchor="middle" x="3132" y="-135.13" font-family="Sans-Serif" font-size="13.00" fill="#2d3436">Enhanced Collaboration</text>
</g>
<!-- eb52709ff5db45a9bed6073c86abc6e1&#45;&gt;3cb4255e4b0c4363ae866c261d569ce8 -->
<g id="edge42" class="edge">
<title>eb52709ff5db45a9bed6073c86abc6e1&#45;&gt;3cb4255e4b0c4363ae866c261d569ce8</title>
<path fill="none" stroke="#7b8894" d="M1306,-294.97C1306,-236.38 1306,-172 1306,-172 1306,-172 3028.57,-172 3028.57,-172"/>
<polygon fill="#7b8894" stroke="#7b8894" points="3028.57,-175.5 3038.57,-172 3028.57,-168.5 3028.57,-175.5"/>
</g>
<!-- 26d064b9e90140148457ef9ad11a0d82 -->
<g id="node16" class="node">
<title>26d064b9e90140148457ef9ad11a0d82</title>
<polygon fill="white" stroke="black" points="1169.6,-482.4 982.4,-482.4 982.4,-295.2 1169.6,-295.2 1169.6,-482.4"/>
<text text-anchor="middle" x="1076" y="-400.07" font-family="Sans-Serif" font-size="13.00" fill="#2d3436">3.1.10 Cultivate a</text>
<text text-anchor="middle" x="1076" y="-384.32" font-family="Sans-Serif" font-size="13.00" fill="#2d3436">Culture of Portfolio</text>
<text text-anchor="middle" x="1076" y="-368.57" font-family="Sans-Serif" font-size="13.00" fill="#2d3436">Excellence</text>
</g>
<!-- 26d064b9e90140148457ef9ad11a0d82&#45;&gt;3cb4255e4b0c4363ae866c261d569ce8 -->
<g id="edge43" class="edge">
<title>26d064b9e90140148457ef9ad11a0d82&#45;&gt;3cb4255e4b0c4363ae866c261d569ce8</title>
<path fill="none" stroke="#7b8894" d="M1076,-294.96C1076,-212.99 1076,-107 1076,-107 1076,-107 3028.66,-107 3028.66,-107"/>
<polygon fill="#7b8894" stroke="#7b8894" points="3028.66,-110.5 3038.66,-107 3028.66,-103.5 3028.66,-110.5"/>
</g>
<!-- b9f330842be04a579cbc504fee71af09 -->
<g id="node17" class="node">
<title>b9f330842be04a579cbc504fee71af09</title>
<ellipse fill="white" stroke="black" cx="1306" cy="-1128.4" rx="93.6" ry="93.6"/>
<text text-anchor="middle" x="1306" y="-1123.93" font-family="Sans-Serif" font-size="13.00" fill="#2d3436">6.1.3 Data Governance</text>
</g>
<!-- b9f330842be04a579cbc504fee71af09&#45;&gt;e5f6494babf64dc18253864b9a4c3b04 -->
<g id="edge11" class="edge">
<title>b9f330842be04a579cbc504fee71af09&#45;&gt;e5f6494babf64dc18253864b9a4c3b04</title>
<path fill="none" stroke="#7b8894" d="M1248.5,-1054.01C1248.5,-992.09 1248.5,-914 1248.5,-914 1248.5,-914 1060.61,-914 1060.61,-914"/>
<polygon fill="#7b8894" stroke="#7b8894" points="1060.61,-910.5 1050.61,-914 1060.61,-917.5 1060.61,-910.5"/>
</g>
<!-- b9f330842be04a579cbc504fee71af09&#45;&gt;7cd3a211728d4064bdcb10ffebd11e14 -->
<g id="edge20" class="edge">
<title>b9f330842be04a579cbc504fee71af09&#45;&gt;7cd3a211728d4064bdcb10ffebd11e14</title>
<path fill="none" stroke="#7b8894" d="M1342.1,-1041.65C1342.1,-1020.09 1342.1,-1003 1342.1,-1003 1342.1,-1003 1996,-1003 1996,-1003 1996,-1003 1996,-988.3 1996,-988.3"/>
<polygon fill="#7b8894" stroke="#7b8894" points="1999.5,-988.3 1996,-978.3 1992.5,-988.3 1999.5,-988.3"/>
</g>
<!-- 80ba35c537a2470e8becef48dae53308 -->
<g id="node18" class="node">
<title>80ba35c537a2470e8becef48dae53308</title>
<ellipse fill="white" stroke="black" cx="1306" cy="-1373.6" rx="93.6" ry="93.6"/>
<text text-anchor="middle" x="1306" y="-1377" font-family="Sans-Serif" font-size="13.00" fill="#2d3436">6.1.4 Integration and</text>
<text text-anchor="middle" x="1306" y="-1361.25" font-family="Sans-Serif" font-size="13.00" fill="#2d3436">Automation</text>
</g>
<!-- 80ba35c537a2470e8becef48dae53308&#45;&gt;bd36eb5d9908443eb4d90273a660c320 -->
<g id="edge15" class="edge">
<title>80ba35c537a2470e8becef48dae53308&#45;&gt;bd36eb5d9908443eb4d90273a660c320</title>
<path fill="none" stroke="#7b8894" d="M1274.8,-1285.01C1274.8,-1262.22 1274.8,-1244 1274.8,-1244 1274.8,-1244 1107.2,-1244 1107.2,-1244 1107.2,-1244 1107.2,-1233.26 1107.2,-1233.26"/>
<polygon fill="#7b8894" stroke="#7b8894" points="1110.7,-1233.26 1107.2,-1223.26 1103.7,-1233.26 1110.7,-1233.26"/>
</g>
<!-- ca11249927334371b28d603e8328dbc7 -->
<g id="node35" class="node">
<title>ca11249927334371b28d603e8328dbc7</title>
<polygon fill="white" stroke="black" points="2089.6,-1222 1902.4,-1222 1902.4,-1034.8 2089.6,-1034.8 2089.6,-1222"/>
<text text-anchor="middle" x="1996" y="-1131.8" font-family="Sans-Serif" font-size="13.00" fill="#2d3436">6.1.6 Data Analysis and</text>
<text text-anchor="middle" x="1996" y="-1116.05" font-family="Sans-Serif" font-size="13.00" fill="#2d3436">Insights</text>
</g>
<!-- 80ba35c537a2470e8becef48dae53308&#45;&gt;ca11249927334371b28d603e8328dbc7 -->
<g id="edge40" class="edge">
<title>80ba35c537a2470e8becef48dae53308&#45;&gt;ca11249927334371b28d603e8328dbc7</title>
<path fill="none" stroke="#7b8894" d="M1337.2,-1284.85C1337.2,-1271.45 1337.2,-1262 1337.2,-1262 1337.2,-1262 1964.8,-1262 1964.8,-1262 1964.8,-1262 1964.8,-1233.28 1964.8,-1233.28"/>
<polygon fill="#7b8894" stroke="#7b8894" points="1968.3,-1233.28 1964.8,-1223.28 1961.3,-1233.28 1968.3,-1233.28"/>
</g>
<!-- 552ce63315a840a39c7acf7c7d96c62c -->
<g id="node19" class="node">
<title>552ce63315a840a39c7acf7c7d96c62c</title>
<ellipse fill="white" stroke="black" cx="1766" cy="-883.2" rx="93.6" ry="93.6"/>
<text text-anchor="middle" x="1766" y="-886.6" font-family="Sans-Serif" font-size="13.00" fill="#2d3436">4.1 Optimise Processes</text>
<text text-anchor="middle" x="1766" y="-870.85" font-family="Sans-Serif" font-size="13.00" fill="#2d3436">and Streamline Delivery</text>
</g>
<!-- 552ce63315a840a39c7acf7c7d96c62c&#45;&gt;a703c37a68c64f07bc64b6c959eb66cd -->
<g id="edge25" class="edge">
<title>552ce63315a840a39c7acf7c7d96c62c&#45;&gt;a703c37a68c64f07bc64b6c959eb66cd</title>
<path fill="none" stroke="#7b8894" d="M1766,-789.14C1766,-781.13 1766,-776 1766,-776 1766,-776 2226,-776 2226,-776 2226,-776 2226,-742.96 2226,-742.96"/>
<polygon fill="#7b8894" stroke="#7b8894" points="2229.5,-742.96 2226,-732.96 2222.5,-742.96 2229.5,-742.96"/>
</g>
<!-- 6122619a280d410b823b61267499e8f7 -->
<g id="node20" class="node">
<title>6122619a280d410b823b61267499e8f7</title>
<polygon fill="white" stroke="black" points="3009.6,-1222 2822.4,-1222 2822.4,-1034.8 3009.6,-1034.8 3009.6,-1222"/>
<text text-anchor="middle" x="2916" y="-1131.8" font-family="Sans-Serif" font-size="13.00" fill="#2d3436">4.1.1 Establish a Process</text>
<text text-anchor="middle" x="2916" y="-1116.05" font-family="Sans-Serif" font-size="13.00" fill="#2d3436">Optimisation Initiative</text>
</g>
<!-- bece1204ffa64e8b9d7c11d0f674ac3f -->
<g id="node25" class="node">
<title>bece1204ffa64e8b9d7c11d0f674ac3f</title>
<polygon fill="white" stroke="black" points="2894.6,-976.8 2707.4,-976.8 2707.4,-789.6 2894.6,-789.6 2894.6,-976.8"/>
<text text-anchor="middle" x="2801" y="-886.6" font-family="Sans-Serif" font-size="13.00" fill="#2d3436">4.1.7 Continuously</text>
<text text-anchor="middle" x="2801" y="-870.85" font-family="Sans-Serif" font-size="13.00" fill="#2d3436">Improve Processes</text>
</g>
<!-- 6122619a280d410b823b61267499e8f7&#45;&gt;bece1204ffa64e8b9d7c11d0f674ac3f -->
<g id="edge34" class="edge">
<title>6122619a280d410b823b61267499e8f7&#45;&gt;bece1204ffa64e8b9d7c11d0f674ac3f</title>
<path fill="none" stroke="#7b8894" d="M2858.5,-1034.3C2858.5,-1034.3 2858.5,-988.05 2858.5,-988.05"/>
<polygon fill="#7b8894" stroke="#7b8894" points="2862,-988.05 2858.5,-978.05 2855,-988.05 2862,-988.05"/>
</g>
<!-- da39c9ef7f004e91a1bbc909a39c71f1 -->
<g id="node22" class="node">
<title>da39c9ef7f004e91a1bbc909a39c71f1</title>
<polygon fill="white" stroke="black" points="2595.6,-731.6 2408.4,-731.6 2408.4,-544.4 2595.6,-544.4 2595.6,-731.6"/>
<text text-anchor="middle" x="2502" y="-641.4" font-family="Sans-Serif" font-size="13.00" fill="#2d3436">4.1.3 Automation and</text>
<text text-anchor="middle" x="2502" y="-625.65" font-family="Sans-Serif" font-size="13.00" fill="#2d3436">Workflow Automation</text>
</g>
<!-- 7cd3a211728d4064bdcb10ffebd11e14&#45;&gt;da39c9ef7f004e91a1bbc909a39c71f1 -->
<g id="edge32" class="edge">
<title>7cd3a211728d4064bdcb10ffebd11e14&#45;&gt;da39c9ef7f004e91a1bbc909a39c71f1</title>
<path fill="none" stroke="#7b8894" d="M2090.09,-827C2224.51,-827 2455.47,-827 2455.47,-827 2455.47,-827 2455.47,-742.95 2455.47,-742.95"/>
<polygon fill="#7b8894" stroke="#7b8894" points="2458.97,-742.95 2455.47,-732.95 2451.97,-742.95 2458.97,-742.95"/>
</g>
<!-- bbd1fa88880d40659500a0b362fb0858 -->
<g id="node37" class="node">
<title>bbd1fa88880d40659500a0b362fb0858</title>
<polygon fill="white" stroke="black" points="2502,-439.2 2408.4,-388.8 2502,-338.4 2595.6,-388.8 2502,-439.2"/>
<text text-anchor="middle" x="2502" y="-384.32" font-family="Sans-Serif" font-size="13.00" fill="#2d3436">Poor Resource Management</text>
</g>
<!-- da39c9ef7f004e91a1bbc909a39c71f1&#45;&gt;bbd1fa88880d40659500a0b362fb0858 -->
<g id="edge38" class="edge">
<title>da39c9ef7f004e91a1bbc909a39c71f1&#45;&gt;bbd1fa88880d40659500a0b362fb0858</title>
<path fill="none" stroke="#7b8894" d="M2502,-544.14C2502,-544.14 2502,-450.63 2502,-450.63"/>
<polygon fill="#7b8894" stroke="#7b8894" points="2505.5,-450.63 2502,-440.63 2498.5,-450.63 2505.5,-450.63"/>
</g>
<!-- 3ec1f9576d78467bbfb9e8f77ac5b9d1 -->
<g id="node23" class="node">
<title>3ec1f9576d78467bbfb9e8f77ac5b9d1</title>
<polygon fill="white" stroke="black" points="2549.6,-1222 2362.4,-1222 2362.4,-1034.8 2549.6,-1034.8 2549.6,-1222"/>
<text text-anchor="middle" x="2456" y="-1131.8" font-family="Sans-Serif" font-size="13.00" fill="#2d3436">4.1.4 Develop a Value&#45;</text>
<text text-anchor="middle" x="2456" y="-1116.05" font-family="Sans-Serif" font-size="13.00" fill="#2d3436">Driven Portfolio Pipeline</text>
</g>
<!-- 3ec1f9576d78467bbfb9e8f77ac5b9d1&#45;&gt;7cd3a211728d4064bdcb10ffebd11e14 -->
<g id="edge22" class="edge">
<title>3ec1f9576d78467bbfb9e8f77ac5b9d1&#45;&gt;7cd3a211728d4064bdcb10ffebd11e14</title>
<path fill="none" stroke="#7b8894" d="M2385.4,-1034.44C2385.4,-958.44 2385.4,-864 2385.4,-864 2385.4,-864 2100.77,-864 2100.77,-864"/>
<polygon fill="#7b8894" stroke="#7b8894" points="2100.77,-860.5 2090.77,-864 2100.77,-867.5 2100.77,-860.5"/>
</g>
<!-- 3ec1f9576d78467bbfb9e8f77ac5b9d1&#45;&gt;bece1204ffa64e8b9d7c11d0f674ac3f -->
<g id="edge35" class="edge">
<title>3ec1f9576d78467bbfb9e8f77ac5b9d1&#45;&gt;bece1204ffa64e8b9d7c11d0f674ac3f</title>
<path fill="none" stroke="#7b8894" d="M2502.53,-1034.53C2502.53,-986.91 2502.53,-939 2502.53,-939 2502.53,-939 2695.97,-939 2695.97,-939"/>
<polygon fill="#7b8894" stroke="#7b8894" points="2695.97,-942.5 2705.97,-939 2695.97,-935.5 2695.97,-942.5"/>
</g>
<!-- 58522799ba764bfca969fedf6a4eeaac -->
<g id="node24" class="node">
<title>58522799ba764bfca969fedf6a4eeaac</title>
<polygon fill="white" stroke="black" points="2779.6,-1222 2592.4,-1222 2592.4,-1034.8 2779.6,-1034.8 2779.6,-1222"/>
<text text-anchor="middle" x="2686" y="-1139.68" font-family="Sans-Serif" font-size="13.00" fill="#2d3436">4.1.5 Embed ePMO</text>
<text text-anchor="middle" x="2686" y="-1123.93" font-family="Sans-Serif" font-size="13.00" fill="#2d3436">Processes into Work</text>
<text text-anchor="middle" x="2686" y="-1108.18" font-family="Sans-Serif" font-size="13.00" fill="#2d3436">Practices</text>
</g>
<!-- 58522799ba764bfca969fedf6a4eeaac&#45;&gt;da39c9ef7f004e91a1bbc909a39c71f1 -->
<g id="edge37" class="edge">
<title>58522799ba764bfca969fedf6a4eeaac&#45;&gt;da39c9ef7f004e91a1bbc909a39c71f1</title>
<path fill="none" stroke="#7b8894" d="M2592.09,-1128C2579.6,-1128 2571,-1128 2571,-1128 2571,-1128 2571,-742.9 2571,-742.9"/>
<polygon fill="#7b8894" stroke="#7b8894" points="2574.5,-742.9 2571,-732.9 2567.5,-742.9 2574.5,-742.9"/>
</g>
<!-- 58522799ba764bfca969fedf6a4eeaac&#45;&gt;bece1204ffa64e8b9d7c11d0f674ac3f -->
<g id="edge36" class="edge">
<title>58522799ba764bfca969fedf6a4eeaac&#45;&gt;bece1204ffa64e8b9d7c11d0f674ac3f</title>
<path fill="none" stroke="#7b8894" d="M2743.5,-1034.3C2743.5,-1034.3 2743.5,-988.05 2743.5,-988.05"/>
<polygon fill="#7b8894" stroke="#7b8894" points="2747,-988.05 2743.5,-978.05 2740,-988.05 2747,-988.05"/>
</g>
<!-- b5889214e0524b6ab77d655315a83138 -->
<g id="node42" class="node">
<title>b5889214e0524b6ab77d655315a83138</title>
<ellipse fill="white" stroke="black" cx="3132" cy="-638" rx="93.6" ry="93.6"/>
<ellipse fill="none" stroke="black" cx="3132" cy="-638" rx="97.6" ry="97.6"/>
<text text-anchor="middle" x="3132" y="-641.4" font-family="Sans-Serif" font-size="13.00" fill="#2d3436">Better Resource</text>
<text text-anchor="middle" x="3132" y="-625.65" font-family="Sans-Serif" font-size="13.00" fill="#2d3436">Management</text>
</g>
<!-- bece1204ffa64e8b9d7c11d0f674ac3f&#45;&gt;b5889214e0524b6ab77d655315a83138 -->
<g id="edge44" class="edge">
<title>bece1204ffa64e8b9d7c11d0f674ac3f&#45;&gt;b5889214e0524b6ab77d655315a83138</title>
<path fill="none" stroke="#7b8894" d="M2895.07,-883C2963.2,-883 3043.4,-883 3043.4,-883 3043.4,-883 3043.4,-690.84 3043.4,-690.84"/>
<polygon fill="#7b8894" stroke="#7b8894" points="3046.9,-690.84 3043.4,-680.84 3039.9,-690.84 3046.9,-690.84"/>
</g>
<!-- 1c668d76821c413f89f2e7ea855657fd -->
<g id="node27" class="node">
<title>1c668d76821c413f89f2e7ea855657fd</title>
<polygon fill="white" stroke="black" points="1859.6,-731.6 1672.4,-731.6 1672.4,-544.4 1859.6,-544.4 1859.6,-731.6"/>
<text text-anchor="middle" x="1766" y="-641.4" font-family="Sans-Serif" font-size="13.00" fill="#2d3436">5.1.1 Standardise Systems</text>
<text text-anchor="middle" x="1766" y="-625.65" font-family="Sans-Serif" font-size="13.00" fill="#2d3436">and Repositories</text>
</g>
<!-- 1c668d76821c413f89f2e7ea855657fd&#45;&gt;26d064b9e90140148457ef9ad11a0d82 -->
<g id="edge33" class="edge">
<title>1c668d76821c413f89f2e7ea855657fd&#45;&gt;26d064b9e90140148457ef9ad11a0d82</title>
<path fill="none" stroke="#7b8894" d="M1766,-544.13C1766,-519.16 1766,-499 1766,-499 1766,-499 1145.53,-499 1145.53,-499 1145.53,-499 1145.53,-493.74 1145.53,-493.74"/>
<polygon fill="#7b8894" stroke="#7b8894" points="1149.03,-493.74 1145.53,-483.74 1142.03,-493.74 1149.03,-493.74"/>
</g>
<!-- 661b2c88622e466da9f8c8ec794206f7 -->
<g id="node28" class="node">
<title>661b2c88622e466da9f8c8ec794206f7</title>
<polygon fill="white" stroke="black" points="2089.6,-482.4 1902.4,-482.4 1902.4,-295.2 2089.6,-295.2 2089.6,-482.4"/>
<text text-anchor="middle" x="1996" y="-392.2" font-family="Sans-Serif" font-size="13.00" fill="#2d3436">5.1.3 Increase visibility</text>
<text text-anchor="middle" x="1996" y="-376.45" font-family="Sans-Serif" font-size="13.00" fill="#2d3436">and reporting</text>
</g>
<!-- 661b2c88622e466da9f8c8ec794206f7&#45;&gt;3cb4255e4b0c4363ae866c261d569ce8 -->
<g id="edge41" class="edge">
<title>661b2c88622e466da9f8c8ec794206f7&#45;&gt;3cb4255e4b0c4363ae866c261d569ce8</title>
<path fill="none" stroke="#7b8894" d="M2090.08,-316C2355.99,-316 3093.9,-316 3093.9,-316 3093.9,-316 3093.9,-240.87 3093.9,-240.87"/>
<polygon fill="#7b8894" stroke="#7b8894" points="3097.4,-240.87 3093.9,-230.87 3090.4,-240.87 3097.4,-240.87"/>
</g>
<!-- d941c6165c044fdbbc1229eea53a6e94&#45;&gt;661b2c88622e466da9f8c8ec794206f7 -->
<g id="edge31" class="edge">
<title>d941c6165c044fdbbc1229eea53a6e94&#45;&gt;661b2c88622e466da9f8c8ec794206f7</title>
<path fill="none" stroke="#7b8894" d="M1996,-544.14C1996,-544.14 1996,-493.57 1996,-493.57"/>
<polygon fill="#7b8894" stroke="#7b8894" points="1999.5,-493.57 1996,-483.57 1992.5,-493.57 1999.5,-493.57"/>
</g>
<!-- e7c9cfa9b780453a88f5a085d963fd55 -->
<g id="node30" class="node">
<title>e7c9cfa9b780453a88f5a085d963fd55</title>
<polygon fill="white" stroke="black" points="1629.6,-731.6 1442.4,-731.6 1442.4,-544.4 1629.6,-544.4 1629.6,-731.6"/>
<text text-anchor="middle" x="1536" y="-641.4" font-family="Sans-Serif" font-size="13.00" fill="#2d3436">5.1.5 Systems</text>
<text text-anchor="middle" x="1536" y="-625.65" font-family="Sans-Serif" font-size="13.00" fill="#2d3436">Architecture and Clarity</text>
</g>
<!-- e7c9cfa9b780453a88f5a085d963fd55&#45;&gt;0fbfdb4358b044cd9a9c3006eae26b7b -->
<g id="edge5" class="edge">
<title>e7c9cfa9b780453a88f5a085d963fd55&#45;&gt;0fbfdb4358b044cd9a9c3006eae26b7b</title>
<path fill="none" stroke="#7b8894" d="M1504.8,-544.22C1504.8,-526.3 1504.8,-513 1504.8,-513 1504.8,-513 921.55,-513 921.55,-513 921.55,-513 921.55,-455.72 921.55,-455.72"/>
<polygon fill="#7b8894" stroke="#7b8894" points="925.05,-455.72 921.55,-445.72 918.05,-455.72 925.05,-455.72"/>
</g>
<!-- e7c9cfa9b780453a88f5a085d963fd55&#45;&gt;661b2c88622e466da9f8c8ec794206f7 -->
<g id="edge30" class="edge">
<title>e7c9cfa9b780453a88f5a085d963fd55&#45;&gt;661b2c88622e466da9f8c8ec794206f7</title>
<path fill="none" stroke="#7b8894" d="M1567.2,-544.2C1567.2,-473.26 1567.2,-388 1567.2,-388 1567.2,-388 1891.16,-388 1891.16,-388"/>
<polygon fill="#7b8894" stroke="#7b8894" points="1891.16,-391.5 1901.16,-388 1891.16,-384.5 1891.16,-391.5"/>
</g>
<!-- fec1cd0198e14d35a86dfd49baa22a31 -->
<g id="node31" class="node">
<title>fec1cd0198e14d35a86dfd49baa22a31</title>
<polygon fill="white" stroke="black" points="1859.6,-1222 1672.4,-1222 1672.4,-1034.8 1859.6,-1034.8 1859.6,-1222"/>
<text text-anchor="middle" x="1766" y="-1131.8" font-family="Sans-Serif" font-size="13.00" fill="#2d3436">5.1.7 Online or</text>
<text text-anchor="middle" x="1766" y="-1116.05" font-family="Sans-Serif" font-size="13.00" fill="#2d3436">Mobile/app Capability</text>
</g>
<!-- fec1cd0198e14d35a86dfd49baa22a31&#45;&gt;7cd3a211728d4064bdcb10ffebd11e14 -->
<g id="edge19" class="edge">
<title>fec1cd0198e14d35a86dfd49baa22a31&#45;&gt;7cd3a211728d4064bdcb10ffebd11e14</title>
<path fill="none" stroke="#7b8894" d="M1766,-1034.41C1766,-1023.96 1766,-1017 1766,-1017 1766,-1017 2042.8,-1017 2042.8,-1017 2042.8,-1017 2042.8,-988.22 2042.8,-988.22"/>
<polygon fill="#7b8894" stroke="#7b8894" points="2046.3,-988.22 2042.8,-978.22 2039.3,-988.22 2046.3,-988.22"/>
</g>
<!-- c35571c041bc41008807ddd7bbb07f9c -->
<g id="node32" class="node">
<title>c35571c041bc41008807ddd7bbb07f9c</title>
<polygon fill="white" stroke="black" points="2089.6,-1467.2 1902.4,-1467.2 1902.4,-1280 2089.6,-1280 2089.6,-1467.2"/>
<text text-anchor="middle" x="1996" y="-1377" font-family="Sans-Serif" font-size="13.00" fill="#2d3436">5.1.8 Consolidated ePMO</text>
<text text-anchor="middle" x="1996" y="-1361.25" font-family="Sans-Serif" font-size="13.00" fill="#2d3436">Functions</text>
</g>
<!-- c35571c041bc41008807ddd7bbb07f9c&#45;&gt;ca11249927334371b28d603e8328dbc7 -->
<g id="edge39" class="edge">
<title>c35571c041bc41008807ddd7bbb07f9c&#45;&gt;ca11249927334371b28d603e8328dbc7</title>
<path fill="none" stroke="#7b8894" d="M2027.2,-1279.5C2027.2,-1279.5 2027.2,-1233.25 2027.2,-1233.25"/>
<polygon fill="#7b8894" stroke="#7b8894" points="2030.7,-1233.25 2027.2,-1223.25 2023.7,-1233.25 2030.7,-1233.25"/>
</g>
<!-- da425fa054604ff9abe107b5e8c31269 -->
<g id="node33" class="node">
<title>da425fa054604ff9abe107b5e8c31269</title>
<ellipse fill="white" stroke="black" cx="1536" cy="-1128.4" rx="93.6" ry="93.6"/>
<text text-anchor="middle" x="1536" y="-1139.68" font-family="Sans-Serif" font-size="13.00" fill="#2d3436">6.1 Establish a</text>
<text text-anchor="middle" x="1536" y="-1123.93" font-family="Sans-Serif" font-size="13.00" fill="#2d3436">Centralised “Project”</text>
<text text-anchor="middle" x="1536" y="-1108.18" font-family="Sans-Serif" font-size="13.00" fill="#2d3436">Data Management System</text>
</g>
<!-- da425fa054604ff9abe107b5e8c31269&#45;&gt;e5f6494babf64dc18253864b9a4c3b04 -->
<g id="edge10" class="edge">
<title>da425fa054604ff9abe107b5e8c31269&#45;&gt;e5f6494babf64dc18253864b9a4c3b04</title>
<path fill="none" stroke="#7b8894" d="M1536,-1034.44C1536,-954.31 1536,-852 1536,-852 1536,-852 1060.58,-852 1060.58,-852"/>
<polygon fill="#7b8894" stroke="#7b8894" points="1060.58,-848.5 1050.58,-852 1060.58,-855.5 1060.58,-848.5"/>
</g>
<!-- bf767a673f634e978c29bdae6fa3826b -->
<g id="node34" class="node">
<title>bf767a673f634e978c29bdae6fa3826b</title>
<polygon fill="white" stroke="black" points="2319.6,-1222 2132.4,-1222 2132.4,-1034.8 2319.6,-1034.8 2319.6,-1222"/>
<text text-anchor="middle" x="2226" y="-1123.93" font-family="Sans-Serif" font-size="13.00" fill="#2d3436">6.1.2 Reporting Dashboard</text>
</g>
<!-- bf767a673f634e978c29bdae6fa3826b&#45;&gt;7cd3a211728d4064bdcb10ffebd11e14 -->
<g id="edge21" class="edge">
<title>bf767a673f634e978c29bdae6fa3826b&#45;&gt;7cd3a211728d4064bdcb10ffebd11e14</title>
<path fill="none" stroke="#7b8894" d="M2272.8,-1034.59C2272.8,-971.95 2272.8,-901 2272.8,-901 2272.8,-901 2101.1,-901 2101.1,-901"/>
<polygon fill="#7b8894" stroke="#7b8894" points="2101.1,-897.5 2091.1,-901 2101.1,-904.5 2101.1,-897.5"/>
</g>
<!-- 749ec315113b4da8a38ddd2554d34f8d -->
<g id="node36" class="node">
<title>749ec315113b4da8a38ddd2554d34f8d</title>
<polygon fill="white" stroke="black" points="3009.6,-1467.2 2822.4,-1467.2 2822.4,-1280 3009.6,-1280 3009.6,-1467.2"/>
<text text-anchor="middle" x="2916" y="-1377" font-family="Sans-Serif" font-size="13.00" fill="#2d3436">6.1.7 Change Management</text>
<text text-anchor="middle" x="2916" y="-1361.25" font-family="Sans-Serif" font-size="13.00" fill="#2d3436">and Training</text>
</g>
<!-- 668a56f9863c4e7c97755a6d6d537c86 -->
<g id="node41" class="node">
<title>668a56f9863c4e7c97755a6d6d537c86</title>
<ellipse fill="white" stroke="black" cx="3150" cy="-1128.4" rx="93.6" ry="93.6"/>
<ellipse fill="none" stroke="black" cx="3150" cy="-1128.4" rx="97.6" ry="97.6"/>
<text text-anchor="middle" x="3150" y="-1131.8" font-family="Sans-Serif" font-size="13.00" fill="#2d3436">Improved Governance &amp;</text>
<text text-anchor="middle" x="3150" y="-1116.05" font-family="Sans-Serif" font-size="13.00" fill="#2d3436">Decision Making</text>
</g>
<!-- 749ec315113b4da8a38ddd2554d34f8d&#45;&gt;668a56f9863c4e7c97755a6d6d537c86 -->
<g id="edge45" class="edge">
<title>749ec315113b4da8a38ddd2554d34f8d&#45;&gt;668a56f9863c4e7c97755a6d6d537c86</title>
<path fill="none" stroke="#7b8894" d="M3009.83,-1373C3074.93,-1373 3150,-1373 3150,-1373 3150,-1373 3150,-1237.48 3150,-1237.48"/>
<polygon fill="#7b8894" stroke="#7b8894" points="3153.5,-1237.48 3150,-1227.48 3146.5,-1237.48 3153.5,-1237.48"/>
</g>
<!-- 76d429bd4bac46409fc4e7e4a8f9a7cf -->
<g id="node39" class="node">
<title>76d429bd4bac46409fc4e7e4a8f9a7cf</title>
<ellipse fill="white" stroke="black" cx="3370" cy="-139.6" rx="93.6" ry="93.6"/>
<ellipse fill="none" stroke="black" cx="3370" cy="-139.6" rx="97.6" ry="97.6"/>
<text text-anchor="middle" x="3370" y="-135.13" font-family="Sans-Serif" font-size="13.00" fill="#2d3436">Continuous Improvement</text>
</g>
<!-- db912280dd6442178d88940fbfb87e75 -->
<g id="node40" class="node">
<title>db912280dd6442178d88940fbfb87e75</title>
<ellipse fill="white" stroke="black" cx="3251" cy="-388.8" rx="93.6" ry="93.6"/>
<ellipse fill="none" stroke="black" cx="3251" cy="-388.8" rx="97.6" ry="97.6"/>
<text text-anchor="middle" x="3251" y="-400.07" font-family="Sans-Serif" font-size="13.00" fill="#2d3436">Cost Savings, Improved</text>
<text text-anchor="middle" x="3251" y="-384.32" font-family="Sans-Serif" font-size="13.00" fill="#2d3436">Quality, &amp; Increased</text>
<text text-anchor="middle" x="3251" y="-368.57" font-family="Sans-Serif" font-size="13.00" fill="#2d3436">Efficiency</text>
</g>
<!-- db912280dd6442178d88940fbfb87e75&#45;&gt;76d429bd4bac46409fc4e7e4a8f9a7cf -->
<g id="edge47" class="edge">
<title>db912280dd6442178d88940fbfb87e75&#45;&gt;76d429bd4bac46409fc4e7e4a8f9a7cf</title>
<path fill="none" stroke="#7b8894" d="M3310.5,-310.98C3310.5,-310.98 3310.5,-228.26 3310.5,-228.26"/>
<polygon fill="#7b8894" stroke="#7b8894" points="3314,-228.26 3310.5,-218.26 3307,-228.26 3314,-228.26"/>
</g>
<!-- b5889214e0524b6ab77d655315a83138&#45;&gt;db912280dd6442178d88940fbfb87e75 -->
<g id="edge46" class="edge">
<title>b5889214e0524b6ab77d655315a83138&#45;&gt;db912280dd6442178d88940fbfb87e75</title>
<path fill="none" stroke="#7b8894" d="M3191.5,-560.18C3191.5,-560.18 3191.5,-477.46 3191.5,-477.46"/>
<polygon fill="#7b8894" stroke="#7b8894" points="3195,-477.46 3191.5,-467.46 3188,-477.46 3195,-477.46"/>
</g>
</g>
</svg>
